<?xml version="1.0" encoding="utf-8"?>
<!-- Generator: Adobe Illustrator 21.1.0, SVG Export Plug-In . SVG Version: 6.00 Build 0)  -->
<svg version="1.1" id="Layer_1" xmlns="http://www.w3.org/2000/svg" xmlns:xlink="http://www.w3.org/1999/xlink" x="0px" y="0px"
	 viewBox="0 0 2279 435" style="enable-background:new 0 0 2279 435;" xml:space="preserve">
<style type="text/css">
	.st0{fill:#10627A;}
</style>
<path class="st0" d="M63.6,321.7l0.1,1.5l1.1,7.7H35.5l2.1-8.4l0,0c0-0.3,0.1-0.7,0.1-1.1c0.1-0.8,0.1-1.4,0.1-1.9l0.1-2.6l0.1-3
	l0.1-3.3c0-1.5,0-3,0.1-4.5l0.1-6.7v-3.9v-7.6c0-1.7,0-3.2,0-4.7v-2.1l0,0v-6.7h-4.1l-4.9,0.1l-4.8,0.1H24l-4.4,0.1
	c-1,0.4-2.2,0.7-3.6,0.7c-0.7,0-1.4,0.1-2.2,0.1c-0.6,0-1,0.1-1.3,0.1l-7.4,0.8v-31.5l7.6,1c0.1,0,0.4,0,1,0.1c0.4,0,0.9,0,1.4,0
	l3.6,0.1l3.8,0.1h1c2.3,0.1,4.6,0.1,6.7,0.1c2.6,0,4.8,0.1,6.8,0.1l0,0l0,0h0.1l4.2,0.1h1l0,0h1.8h0.5l0,0h12l0,0h0.9
	c3.3,0,6.7-0.1,10-0.1l3.5-0.1c1,0,2.4-0.1,3.8-0.1l0,0l3.5-0.1c1.1,0,2,0.1,2.8,0.2c0.7,0,1.4-0.1,2.2-0.1c0.6,0,1.3-0.1,2.1-0.1
	c0.5,0,1-0.1,1.4-0.1l7.5-0.9v32l-7.9-1.4h-0.3c-0.6,0-1.2-0.1-1.6-0.1c-0.9,0-1.7-0.1-2.5-0.1l0,0l-3.1-0.1c-1.7,0-3-0.3-4-0.8
	l-3.8-0.1h-3.3l-4.7-0.1h-1v8.2c0,4.3,0,6.5,0.1,8.8v0.5c0,1.5,0.1,3,0.1,4.6c0,1.4,0.1,2.9,0.1,4.5l0.2,4.3l0.2,4.1
	c0,1,0.1,2.3,0.2,3.7l0.2,3.3c0,0.7,0.1,1.7,0.2,2.7l0.2,2.2l0,0L63.6,321.7z"/>
<path class="st0" d="M181.6,324.2C181.2,323.5,181.6,324.2,181.6,324.2z"/>
<path class="st0" d="M353.8,274.6c0,1.4,0,2.6,0,7.6v11.4l0,0v2.8c0,0.9,0,1.9,0,3v0.2l0,0c0,2,0.1,4,0.1,6.3v0.1c0,1,0,2.1,0.1,3.2
	l0.1,3.2l0.1,2.6c0,1.1,0,2,0.1,3.2l0.1,1.7c0,0.9,0.1,1.8,0.1,2.7l0,0l0.1,1.3c0,0.3,0,0.6,0.1,1.1l0.5,7.2h-31.9l0.6-7.3
	c0.1-0.8,0.1-1.2,0.1-1.8v-1l0,0v-1.6l0,0c0-1,0.1-2.1,0.1-3l0,0l0.1-5.8l0.1-6c0-1,0-1.9,0-2.7l0,0c0-1,0-2,0-2.8v-2.3
	c0-0.8,0-1.4,0-2l0,0V282l0,0v-0.7V280c0-1.1-0.1-2.5-0.1-4.3v-0.4c0-1.5-0.1-3.1-0.1-5l-0.1-3.1c0-0.9,0-1.8-0.1-2.9l-0.1-2.9
	l-0.1-2.7l-0.1-1.7c0-0.9-0.1-1.7-0.1-2.6l0,0c0-0.9-0.1-1.4-0.1-1.7l-1.2-7.7h33.5l-1.1,7.7c0,0.1,0,0.3-0.1,0.7l0,0
	c-0.1,0.7-0.1,1.2-0.1,1.4l0,0l-0.1,2l-0.1,3.2l-0.1,2.1c-0.1,1.6-0.1,3.2-0.1,4.7l-0.1,3.8c0,1.4-0.1,2.7-0.1,3.9l0,0L353.8,274.6z
	"/>
<path class="st0" d="M472.8,322.8L472.8,322.8c0,0.8,0.1,1.4,0.2,1.9l0.9,7.6h-31.7l0.6-7.3c0-0.5,0.1-1.4,0.2-2.8
	c0-1.2,0.1-2.1,0.1-3.2l0.1-1.7c0.1-2,0.1-4.1,0.2-6.1l0,0c0-1.3,0.1-2.3,0.1-3.3l0.1-3.3l0,0c0.1-2.3,0.1-4.3,0.1-6.3v-0.2l0.1-5.7
	l0,0V288v-11.6l0,0v-0.9V274v-0.7c0-1-0.1-2.1-0.1-3.8v-0.1v-0.2c0-1.6-0.1-3.3-0.1-5.3v-0.1c0-0.9,0-1.9-0.1-3l0,0l-0.1-2.3
	c0-1.2-0.1-2.5-0.1-3.6v-0.8v-0.2c0-2.1,0-1.5,0-1.6l0,0v-0.4l-0.1-6.8h6.8c0.7,0,0,0,3.2,0c1.2,0,2.5,0,3.8,0.1
	c1.4,0,2.8,0,4.2,0.1c1.6,0,3,0.1,4.5,0.1c1.7,0.1,3.3,0.1,4.7,0.2c1.8,0.1,3.3,0.2,4.7,0.2c1.9,0.1,3.4,0.2,4.7,0.3
	c1,0.1,2.5,0.2,4.4,0.4c4.2,0.4,8.1,0.9,11.7,1.6c3.8,0.7,7.2,1.5,10.3,2.4l0,0c3.3,1,6.2,2.1,8.8,3.4c2.8,1.4,5.1,3,7.1,4.7l0,0
	c2.2,1.9,3.9,4.1,5.1,6.6l0,0c1.2,2.5,1.8,5.2,1.9,8.1v0.1c0,2.7-0.5,5.2-1.5,7.7c-0.9,2.4-2.3,4.6-4.1,6.8l0,0
	c-1.6,2-3.6,3.8-5.9,5.6c-2.1,1.6-4.6,3.2-7.5,4.7l0,0c-2.8,1.5-5.7,2.8-8.9,4c-3.1,1.2-6.5,2.3-10.2,3.3c-3.6,1-7.5,1.9-11.5,2.6
	c-2.2,0.4-4.4,0.8-6.6,1.1v2.6l0,0v1.7l0,0c0,0.5,0,1.1,0,1.8v0.1c0,2.4,0,3.2,0,3.9v0.1c0,1.6,0,2.1,0,2.5L472.8,322.8z
	 M475.2,266.5c-0.8-0.1-1.7-0.1-2.6-0.2v21.8h0.1c2.5-0.5,4.8-1,7-1.5l0,0c2.2-0.6,4.2-1.2,6-1.8c1.9-0.7,3.6-1.4,5-2.1l0,0
	c1.4-0.7,2.6-1.4,3.6-2.2l0,0c0.9-0.7,1.7-1.4,2.3-2.2c0.5-0.6,0.8-1.2,1-1.7c0.2-0.5,0.3-1.1,0.3-1.6c0-0.2-0.1-0.4-0.2-0.6
	c0-0.1-0.1-0.2-0.2-0.3c-0.2-0.3-0.5-0.7-1-1.1l0,0c-0.4-0.4-0.9-0.8-1.5-1.2c-0.8-0.5-1.8-1-2.9-1.5l0,0c-1.2-0.5-2.5-1-4-1.4
	c-1.6-0.5-3.6-0.9-5.8-1.3l0,0C480.6,267.1,478.1,266.8,475.2,266.5z"/>
<path class="st0" d="M631.5,253.4C631.5,253.5,631.5,253.4,631.5,253.4z"/>
<path class="st0" d="M600.2,252.9C600.2,252.7,600.2,252.9,600.2,252.9l-1.4-8H634c-0.8,2.9-2.3,5.8-2.5,8.6c0,0.3-0.2,2.3-0.3,3.5
	c-0.1,0.8-0.1,1.6-0.1,2.4c0,1-0.1,2.1-0.2,3.1c-0.1,1.3-0.1,2.4-0.1,3.4c0,1.3-0.1,2.6-0.1,3.6c0,1.3-0.1,2.6-0.1,3.7l0,0v0.2
	c-0.1,2.5-0.1,5.1-0.1,7.3l0,0v0.4c0,1.2,0,2.1,0,6.7v23.1h5.1h0.7c2.7,0,5.6,0,8.7-0.1h0.5c3.2,0,6.5-0.1,10-0.1
	c1.6,0,3.4-0.1,5.2-0.1c1.7,0,3.5-0.1,5.3-0.1l6.9-0.2v22.8l-8.1-0.1l0,0h-2.6H662c-1.3,0-2.5-0.1-3.9-0.1l-8.8-0.2
	c-2.2,0-4.4-0.1-6.6-0.1l-12-0.2l0,0l-5.7-0.1l-5.5-0.1l-4.8-0.1l-4-0.1c-1.2,0-2.7,0-4.5,0h-8.6l2.1-8.3c0.1-0.3,0.1-0.6,0.2-1.1
	l0,0c0.1-0.5,0.1-1.1,0.2-1.8v-0.1c0.1-0.7,0.1-1.5,0.2-2.5c0.1-1.3,0.1-2.2,0.2-3l0.1-3.2c0-1.2,0.1-2.3,0.1-3.2
	c0.1-2.2,0.1-4.1,0.1-5.9l0,0v-0.4v-0.9c0-0.7,0-1.2,0-4.1v-16.8l0,0v-0.6v-1.3v-0.2c0-1.9,0-1.5,0-1.7v-1.4v-0.8v-0.1v-2.5
	c0-0.8,0-1.7-0.1-2.7v-0.1l-0.1-5.7l-0.1-2.5c0-0.9,0-1.8-0.1-2.9v-0.1c0-0.6,0-1.4-0.1-2.2c0-0.4-0.1-1.1-0.1-1.8v-0.2
	C600.3,253.7,600.2,253.3,600.2,252.9z"/>
<path class="st0" d="M806.2,310.9c1.4,0,3-0.1,4.6-0.2l6.5-0.3l0.5,6.5l0.7,9.1l0.6,7.3l-8.7-0.1l0,0h-2.7h-0.1
	c-1.2,0-2.5-0.1-4-0.1l-9-0.2c-2.2,0-4.5-0.1-6.7-0.1l-12.1-0.2l0,0l-5.7-0.1l-5.5-0.1l-4.8-0.1l-3.9-0.1c-1.1,0-2.5,0-4.2,0h-7.4
	l0.7-7.4c0-0.3,0.1-0.8,0.1-1.6c0-0.8,0.1-1.5,0.1-2c0-1.1,0.1-2.1,0.1-3.2l0,0l0.1-2.6l0,0l0.1-6.5v-6.3v-0.1v-5v-16.9l0,0V280
	v-1.3v-0.1V277c0-1.9,0-0.9,0-2.5l0,0l-0.1-5.3l0,0l-0.1-5.8c0-0.9,0-2-0.1-3l0,0l-0.1-2.3l0,0c0-1.5-0.1-2.9-0.1-4.1l0,0v-1.3l0,0
	v-0.4l-0.7-7.4h7.4c1.6,0,2.4,0,3.8,0h0.3c1.1,0,2.5-0.1,4.1-0.1l3.8-0.1l10.1-0.3l11-0.4l10.3-0.4h0.3c2.9-0.1,5.4-0.2,7.9-0.3
	l2.5-0.1l0,0l8.7-0.5l0.6,6.5l0.7,8.3l0.6,7.3h-7.3c-3,0-2.5,0-2.9,0h-1.8h-3.5l-4.1,0.1l0,0h-0.7c-2.6,0-5.4,0.1-8.2,0.1l0,0
	l-5.1,0.1l-3.6,0.1l-3.6,0.1h-0.2v13.3l4.2-0.1c1.9-0.1,4.3-0.1,6.8-0.2l1.7-0.1l4.3-0.2l4.1-0.2l0,0c1.1-0.1,2.3-0.1,3.6-0.2l0,0
	c0.8,0,1.8-0.1,2.9-0.2l6.7-0.5l0.4,6.8l0.5,8.3l0.5,7.2l-9.3-0.1h-1.7l0,0h-2.2c-1.3,0-2.7,0-4.1,0h-0.1l-15.3-0.2h-3v12.3h2h4
	c1.6,0-0.7,0,4.8,0c6,0,3.3,0,5.1,0c1.7,0,3.5,0,5.2,0s3.4,0,5.1-0.1C802.9,311,804.5,310.9,806.2,310.9z"/>
<path class="st0" d="M1106.9,13.6c-151,0-316.2,1.2-467.2,1.2c228.9,149.5,411,287.3,477.1,416l-3.1-47.1
	c0-56.2-237.4-283.5-303.5-317.3l281.8-7.7L1106.9,13.6z"/>
<path class="st0" d="M1166.3,14.8c151,0,317.4,0,468.3,0c-228.9,149.5-411,287.3-477.1,416l3.1-47.1c0-56.2,237.4-283.5,303.5-317.3
	l-281.8-7.7L1166.3,14.8z"/>
<path class="st0" d="M982.3,100.5c108.2-0.2,233.3-0.4,341.5-0.7c-91.7,74.7-161.5,182.2-187.9,257.9l1.2-28.9
	c8.4-62.2,81.9-169.7,96.5-195.9l-219.3-7.8L982.3,100.5z"/>
<path class="st0" d="M1679.6,310.9c1.4,0,3-0.1,4.6-0.2l6.5-0.3l0.5,6.5l0.7,9.1l0.6,7.3l-8.7-0.1l0,0h-2.7h-0.1
	c-1.2,0-2.5-0.1-4-0.1l-9-0.2c-2.2,0-4.5-0.1-6.7-0.1l-12.1-0.2l0,0l-5.7-0.1l-5.5-0.1l-4.8-0.1l-3.9-0.1c-1.1,0-2.5,0-4.2,0h-7.4
	l0.7-7.4c0-0.3,0.1-0.8,0.1-1.6c0-0.8,0.1-1.5,0.1-2c0-1.1,0.1-2.1,0.1-3.2l0,0l0.1-2.6l0,0l0.1-6.5v-6.3v-0.1v-5v-16.9l0,0v-0.7
	v-1.2v-0.1V277c0-1.9,0-0.9,0-2.5l0,0l-0.1-5.3l0,0l-0.1-5.8c0-0.9,0-2-0.1-3l0,0v-2.3l0,0c0-1.5-0.1-2.9-0.1-4.1l0,0v-1.3l0,0v-0.3
	l-0.8-7.4h7.5c1.6,0,2.4,0,3.8,0h0.3c1.1,0,2.5-0.1,4.1-0.1l3.8-0.1l10.1-0.3l11-0.4l10.3-0.4l0,0h0.2l0,0c2.9-0.1,5.5-0.2,7.9-0.3
	l2.5-0.1l0,0l8.6-0.5l0.6,6.5l0.7,8.3l0.6,7.3h-7.3c-3,0-2.5,0-2.9,0h-1.8h-3.5l-4.1,0.1l0,0h-0.7c-2.6,0-5.4,0.1-8.2,0.1l0,0
	l-5.1,0.1l-3.6,0.1l-3.6,0.1h-0.2v13.3l4.2-0.1c2-0.1,4.3-0.1,6.8-0.2l1.7-0.1l4.3-0.2l4.1-0.2l0,0c1.1-0.1,2.3-0.1,3.6-0.2l0,0
	c0.8,0,1.8-0.1,2.9-0.2l6.7-0.5l0.4,6.8l0.5,8.3l0.5,7.2l-7.2-0.1c-1.3,0-2.5,0-3.8,0h-2.2c-1.3,0-2.7,0-4.1,0h-0.1l-15.3-0.2h-3
	v12.3h2h4c1.6,0-0.7,0,4.8,0c6,0,3.3,0,5.1,0c1.7,0,3.5,0,5.2,0s3.4,0,5.1-0.1C1676.2,311,1677.9,310.9,1679.6,310.9z"/>
<path class="st0" d="M1871.8,247.3c0.1-0.2,0.3-0.5,0.5-0.8l2.9-4.9l28,10.9l-7.3,7.3c-0.3,0.3-0.6,0.7-1.1,1.2
	c-0.3,0.3-0.9,1-1.8,2.1l-0.1,0.1c-1,1.1-1.8,2.1-2.6,3c-0.7,0.8-1.8,2.2-3.1,3.8l0,0c-1.8,2.2-3,3.6-3.6,4.4
	c-0.8,1-2.2,2.7-3.9,4.8l-1.2,1.5c-2.4,2.9-4.8,6-7.4,9.2l-4.5,5.6l0,0l-4.5,5.6l0,0c-1.3,1.7-3.4,4.2-5.5,6.8l-3.2,4l-1.6,2.1
	c-1.9,2.3-3.6,4.5-5.9,7.5l0,0l-2.4,3c-0.5,0.7,1-1.2-3.4,4.3l0,0l-1.2,1.5c-0.7,0.9-1.2,1.5-2.2,2.8l-2,2.5h-6.3l-2-1.9
	c-0.4-0.4-0.9-1-1.5-1.7c-0.2-0.3-0.9-1.1-1.7-2.2v-0.1c-1-1.4-1.8-2.4-2.4-3.1c-0.3-0.4-1.3-1.8-2.8-3.8l0,0l-3.3-4.5l0,0l-3.6-5
	l0,0l-1.2-1.7c-1.2-1.7-2.5-3.4-6.8-9.4l0,0l-4.2-5.8l-4.2-5.8l-1.9-2.6c-2.7-3.7-5.2-7.1-6.2-8.5l0,0l-3.7-5.1
	c-1.5-2-2.7-3.7-3.4-4.6c-0.6-0.8-1.7-2.3-2.9-3.9c-1.2-1.6-1.9-2.5-2.4-3.2l0,0c-0.5-0.7-1.1-1.4-1.7-2.2c-0.4-0.4-0.6-0.7-0.7-0.9
	l-7.4-7.4l28.9-10.7l2.8,5.2c0.1,0.2,0.3,0.5,0.5,0.8l0,0c0.2,0.3,0.6,0.9,1.2,1.8l0,0c0.3,0.4,0.7,1,1.8,2.6
	c0.6,0.9,1.3,1.9,2.2,3.1v0.1c0.4,0.6,1.3,1.8,2.6,3.6c1.4,2,2.3,3.2,2.8,4v0.1c0.5,0.8,1.6,2.2,3,4.3l3.2,4.5
	c2.2,3.1,3.1,4.4,4,5.5l0,0l2.6,3.7l0,0l6.3,8.7v0.1c0.5,0.7,1.5,2.1,2.9,3.9c1.4,1.9,2.1,2.8,2.6,3.5l1.1,1.5l1.1-1.5l0,0
	c0.6-0.8,1.8-2.4,3.2-4.1l2.7-3.5l0,0l6.8-9l3.6-4.7l0,0l3.6-4.7c0.9-1.2,2.1-2.7,3.4-4.6l3.3-4.4v-0.1c0.7-1,1.8-2.4,3.1-4.1l0,0
	l2.7-3.6l0,0l2.3-3.2l0,0l1.8-2.5l0,0C1871.3,247.9,1871.6,247.4,1871.8,247.3L1871.8,247.3z"/>
<path class="st0" d="M2049.1,310.9c1.4,0,3-0.1,4.6-0.2l6.5-0.3l0.5,6.5l0.7,9.1l0.6,7.3l-8.7-0.1l0,0h-2.7h-0.1
	c-1.2,0-2.5-0.1-4-0.1l-9-0.2c-2.2,0-4.5-0.1-6.7-0.1l-12.1-0.2l0,0l-5.7-0.1l-5.5-0.1l-4.8-0.1l-3.9-0.1c-1.1,0-2.5,0-4.2,0h-7.4
	l0.7-7.4c0-0.3,0.1-0.8,0.1-1.6c0-0.8,0.1-1.5,0.1-2c0-1.1,0.1-2.1,0.1-3.2l0,0l0.1-2.6l0,0l0.1-6.5v-6.3v-0.1v-5v-16.9l0,0v-0.7
	v-1.2v-0.1V277c0-1.9,0-0.9,0-2.5l0,0l-0.1-5.3l0,0l-0.1-5.8c0-0.9,0-2-0.1-3l0,0l-0.1-2.3l0,0c0-1.5-0.1-2.9-0.1-4.1l0,0v-1.3l0,0
	v-0.3l-0.8-7.4h7.5c1.6,0,2.4,0,3.8,0h0.3c1.1,0,2.5-0.1,4.1-0.1l3.8-0.1l10.1-0.3l11-0.4l10.3-0.4l0,0h0.2l0,0
	c2.9-0.1,5.5-0.2,7.9-0.3l2.5-0.1l0,0l8.7-0.5l0.6,6.5l0.7,8.3l0.6,7.3h-7.3c-3,0-2.5,0-2.9,0h-1.8h-3.5l-4.1,0.1l0,0h-0.7
	c-2.6,0-5.4,0.1-8.2,0.1l0,0l-5.1,0.1l-3.6,0.1l-3.6,0.1h-0.2v13.3l4.2-0.1c2-0.1,4.4-0.1,6.8-0.2l1.7-0.1l4.3-0.2l4.1-0.2l0,0
	c1.1-0.1,2.3-0.1,3.6-0.2l0,0c0.8,0,1.8-0.1,2.9-0.2l6.7-0.5l0.4,6.8l0.5,8.3l0.5,7.2l-7.2-0.1c-1.3,0-2.5,0-3.8,0h-2.2
	c-1.3,0-2.7,0-4.1,0h-0.1l-15.3-0.2h-3v12.3h2h4c1.6,0-0.7,0,4.8,0c6,0,3.3,0,5.1,0c1.7,0,3.5,0,5.2,0s3.4,0,5.1-0.1
	C2045.7,311,2047.4,310.9,2049.1,310.9z"/>
<path class="st0" d="M2193.7,253l6.8,5.3l11.6,8.9l3.8,2.9c2.3,1.8,4.2,3.3,8.3,6.4l0,0l8.4,6.5l13.2,10.2l0,0l0.5,0.4v-0.2v-1.5
	l0.1-8.4l0.1-8.8c0-1.7,0.1-3.3,0.1-4.8l0.1-3.7v-1.4c0-2.2,0.1-4.2,0.1-5.8v-0.1l0.1-2.2c0-1.2,0.1-2.3,0.1-3.2l0,0v-1.8l0,0
	c0-0.7,0-1.1,0-1.2l0.4-6.6l26.8,1.1l-0.6,7l-0.1,0.8c-0.1,1.1-0.2,2.8-0.3,3.9v0.1c-0.1,1.4-0.2,2.8-0.3,3.7
	c-0.1,1.6-0.2,3.2-0.3,4.5v0.1c-0.2,3.5-0.4,6.4-0.6,9.6l0,0l-0.1,1.3c-0.1,2.3-0.3,4.4-0.4,6.2l-0.4,6.5l-0.3,6.1
	c-0.1,2.4-0.2,4.9-0.4,7.4l0,0l-0.1,2c-0.2,4-0.3,7.9-0.5,11.2l-0.2,6.3c-0.1,2.2-0.1,4.1-0.2,5.9l-0.2,6.6h-9.1l-3.1-2.3l0,0
	l-2.3-1.8l0,0c-0.8-0.6-2.8-2.2-5.1-3.9l-2.4-1.8l0,0l-4.9-3.7l-5.4-4.1l0,0l-9.4-7.2l-2.5-1.9c-4.2-3.2-8.3-6.4-12.5-9.5l-4.1-3.1
	l-7.8-6l0,0l-5-3.8c-3.6-2.8-3.2-2.5-5.2-4l0,0l-0.1-0.1v2.7v0.1l-0.1,4.5l-0.1,4.2c0,1.6-0.1,3.1-0.1,4.5l-0.1,4.6
	c0,1.8-0.1,3.5-0.1,5l-0.1,3.7v1.6c0,2.2-0.1,4.2-0.1,5.9v0.1c0,1.2,0,2.2-0.1,3l0,0c0,0.5,0,0,0,2.4v0.1c0,0.4,0-0.1,0,1.7
	c0,0.6,0,0.6,0,0.7l0.4,7.5l-27.8-1.5l0.6-6.9l0.4-4.4l0,0l0.1-1.8l0.4-5.5l0.6-9.5l0.3-4.9l0.4-6c0.2-2.5,0.3-4.2,0.4-6l0,0
	l0.4-5.4c0.2-3.2,0.3-5.2,0.5-7.3l0.3-3.8l0.3-5.2l0.3-4.8l0,0l0.2-3.7c0.1-1.9,0.2-3.5,0.3-4.4l0,0l0.2-2.6l0,0l0.2-2.6l0.4-6.3
	h9.1l1.9,1.6c0.2,0.1,1.3,1,3,2.4l2.9,2.3l4.7,3.7L2193.7,253L2193.7,253z"/>
<path class="st0" d="M1465.4,337.6c-3.7,0-7.3-0.1-10.9-0.4c-3.5-0.3-6.9-0.7-10.2-1.3c-3.3-0.6-6.5-1.4-9.8-2.4
	c-3.2-1-6.4-2.2-9.5-3.6l-4.9-2.2l11.5-25.8l4.6,2.5c2.5,1.4,5.1,2.7,7.7,3.8c2.6,1.2,5.2,2.2,7.7,3c2.4,0.8,4.8,1.5,7.1,1.9
	c2.2,0.4,4.2,0.6,6.2,0.6c2.4,0,5,0,7.2-0.3l0,0c1.8-0.2,3.2-0.5,3.8-1l0,0c0.6-0.5,1.1-1.1,1.4-1.8c0.4-0.9,0.6-2.1,0.6-3.5
	c0-0.5-0.1-0.8-0.3-1.2c-0.3-0.5-0.8-1-1.5-1.6c-1-0.7-2.6-1.6-4.4-2.6c-2.2-1.2-4.6-2.2-6.5-3c-1.6-0.6-3.6-1.4-6.1-2.3
	c-2.4-0.9-4.6-1.7-6.7-2.3c-2.6-0.8-5-1.7-7.3-2.7s-4.5-2-6.7-3.1c-2.3-1.2-4.3-2.5-6.1-3.8c-1.9-1.4-3.6-2.9-5.2-4.6
	c-1.8-1.9-3.2-4.1-4.1-6.5s-1.4-5-1.4-7.7c0-4.5,1.2-8.6,3.8-12.2c2.3-3.4,5.7-6.3,10.1-8.6c4.1-2.2,8.8-3.9,14.2-5
	c5.2-1.1,11-1.6,17.4-1.6c3.7,0,7.2,0.1,10.7,0.4c3.5,0.2,6.7,0.6,9.7,1.1c3.2,0.5,6.1,1.2,8.8,2.1c2.8,0.9,5.3,2,7.6,3.4l3.8,2.2
	l-9.1,26.5l-5.1-2.9c-2.7-1.5-5.3-2.8-7.7-4c-2.4-1.1-4.6-2-6.6-2.7c-1.9-0.7-3.9-1.2-6.1-1.5c-2.1-0.3-4.2-0.5-6.5-0.5
	c-2.1,0-4.5,0.1-6.7,0.4c-1.5,0.2-2.8,0.4-3.6,0.8c-0.4,0.2-0.6,0.3-0.7,0.5c-0.1,0.1-0.1,0.4-0.1,0.8c0,0.2,0,0.4,0.1,0.6
	c0.1,0.3,0.4,0.6,0.7,1c0.6,0.6,2.7,1.6,4.7,2.5l0,0c1,0.5,2,1,2.7,1.3c1.3,0.7,2.7,1.4,4,2c1.4,0.6,2.9,1.2,4.6,1.9
	c1.8,0.7,3.5,1.4,5.1,2c1.8,0.7,3.5,1.4,5,2l0,0c3.9,1.6,7.6,3.3,10.9,5.2c3.3,1.9,6.3,4,9,6.2c2.9,2.4,5.2,5,6.7,7.6
	c1.7,3,2.6,6.1,2.6,9.3c0,5.6-1.2,10.5-3.5,14.7c-2.4,4.2-5.9,7.5-10.5,9.9c-4.2,2.2-9,3.8-14.5,4.9
	C1478,337.1,1472,337.6,1465.4,337.6z"/>
<path class="st0" d="M250.7,315l-1.4-0.9c-0.7-0.5-1.4-1-2-1.4l-2.8-2l-3.2-2.3c-1.3-0.9-3.8-2.8-6.5-4.7l-0.9-0.7l-3.9-2.9
	l-3.9-2.8l-4.8-3.6l-2.4-1.8l-0.1-0.1c1.1-0.6,2.1-1.1,3.1-1.7c2.2-1.3,4.2-2.7,5.8-4c1.8-1.5,3.3-3,4.7-4.7
	c1.5-1.8,2.6-3.8,3.4-5.8c0.9-2.2,1.3-4.4,1.3-6.7v-0.1c0-2.6-0.6-5.1-1.9-7.4c-1.1-2.1-2.8-4-4.9-5.7c-1.8-1.4-4.1-2.7-6.7-3.9
	c-2.4-1.1-5.2-2.1-8.2-2.9s-6.3-1.5-9.8-2c-3.4-0.5-7.2-0.9-11.4-1.2c-2-0.1-4.4-0.3-7-0.4c-2.1-0.1-4.4-0.2-7-0.3
	c-2.2-0.1-4.4-0.2-6.7-0.2c-2.1,0-4.2-0.1-6.3-0.1h-0.1h-5.6c-5.1,0-3.1,0-4.7,0h-9l2.5,8.3l0.1,0.8v0.2c0,0.2,0.1,0.7,0.1,1.4
	c0.1,0.9,0.1,1.5,0.1,2l0.1,2.3c0.1,0.9,0.1,1.6,0.1,2.3v0.2c0.1,1.8,0.2,3.6,0.2,5.1l0.1,4.9v0.7c0,0.5,0,1,0,3.2v0.2
	c0,0.6,0,1,0,1.3v0.9v8.6l0.1,2.2c0,0.5,0,1.1,0.1,4.4c0,0.9,0,1.9,0.1,5.9v6.6v6.5v0.1c0,2.9,0,2.6,0,3v2.8c0,0.7-0.1,1.5-0.1,2.3
	c0,0.5-0.1,1.2-0.1,1.9v0.2c0,0.4,0,0.7,0,0.9l-2.2,8.3h34.5l-1.9-8c-0.1-0.5-0.1-0.8-0.1-1V323c-0.1-1.3-0.1-2.7-0.2-4.2
	c-0.1-1.8-0.1-3.7-0.2-5.7c-0.1-1.2-0.1-2.3-0.1-3.3l-0.1-2.9c0-2.1-0.1-3.9-0.1-5.6V301c0-2.1-0.1-3.7-0.1-5c0-0.8,0-1.3,0-1.7V294
	l1.9,1.5l0.9,1.3c2.1,1.7,2.2,1.8,2.6,2.1c1.4,1.1,2.5,2,3.3,2.6l3.9,3c3.4,2.7,6.3,5,8.9,7l4.7,3.6l4.6,3.6l4.3,3.3l4.2,3.2
	l6.4,4.9l2,1.5l1,0.8l3.3,2.5l28.2-13.4L250.7,315z M206.5,271.7c-0.1,0.3-0.3,0.7-0.5,1c-0.4,0.5-0.9,1.1-1.4,1.6
	c-0.6,0.5-1.2,1-2,1.6c-0.8,0.6-1.7,1.2-2.6,1.7c-0.8,0.5-1.8,1-2.9,1.5H197c-1.2,0.6-2.3,1.1-3.2,1.5c-1.2,0.5-2.3,1-3.2,1.3
	c-0.5,0.2-1.6,0.6-3.1,1.1c-1.6,0.5-2.4,0.8-2.8,0.9l-4,1.3v-19.7c0.8,0,1.5,0.1,2.2,0.1c2.7,0.2,5.2,0.4,7.3,0.9
	c2.3,0.2,4.3,0.5,5.9,0.8c1.7,0.3,3.1,0.6,4.4,1c1.1,0.3,2.2,0.7,3.2,1.1c0.8,0.3,1.4,0.6,1.8,0.9c0.5,0.3,0.8,0.5,1.1,0.8
	C206.6,271.3,206.6,271.5,206.5,271.7z"/>
</svg>
