<?xml version="1.0" encoding="UTF-8" standalone="no"?>
<!-- Created with Inkscape (http://www.inkscape.org/) -->

<svg
   xmlns:dc="http://purl.org/dc/elements/1.1/"
   xmlns:cc="http://creativecommons.org/ns#"
   xmlns:rdf="http://www.w3.org/1999/02/22-rdf-syntax-ns#"
   xmlns:svg="http://www.w3.org/2000/svg"
   xmlns="http://www.w3.org/2000/svg"
   xmlns:xlink="http://www.w3.org/1999/xlink"
   xmlns:sodipodi="http://sodipodi.sourceforge.net/DTD/sodipodi-0.dtd"
   xmlns:inkscape="http://www.inkscape.org/namespaces/inkscape"
   width="491.86041mm"
   height="156.31583mm"
   viewBox="0 0 491.86041 156.31583"
   version="1.1"
   id="svg8"
   inkscape:version="0.92.3 (2405546, 2018-03-11)"
   sodipodi:docname="lzs1.svg">
  <defs
     id="defs2">
    <polygon
       points="563.5,485.9 563.5,509.7 609.7,509.7 561.4,585.3 561.4,605.9 641.5,605.9 641.5,582.1 593,582.1 641.5,506.2 641.5,485.9 "
       id="SVGID_1_" />
    <polygon
       points="715.8,485.9 693.7,557.6 671.6,485.9 644.3,485.9 683.9,605.9 703.5,605.9 743.2,485.9 "
       id="SVGID_3_" />
    <polygon
       points="753.1,485.9 753.1,605.9 833.3,605.9 833.3,582.1 779.3,582.1 779.3,557.3 825.3,557.3 825.3,533.5 779.3,533.5 779.3,509.7 833.3,509.7 833.3,485.9 "
       id="SVGID_5_" />
    <polygon
       points="847.1,485.9 847.1,509.7 893.2,509.7 845,585.3 845,605.9 925,605.9 925,582.1 876.6,582.1 925,506.2 925,485.9 "
       id="SVGID_7_" />
    <polygon
       points="870.4,179.4 707.3,16.3 544.2,179.4 598.6,233.8 707.3,125 870.4,288.1 924.8,233.8 979.3,288.1 1088,288.1 924.9,125 "
       id="SVGID_9_" />
    <polygon
       points="142.9,213.3 219.8,290.2 328.7,290.2 517.2,478.7 571.6,424.3 360.6,213.3 "
       id="SVGID_11_" />
    <polygon
       points="27.4,97.8 104.3,174.7 376.3,174.7 598.8,397.2 762.1,233.8 653.4,233.8 598.8,288.4 408.1,97.8 "
       id="SVGID_13_" />
    <path
       d="m 992.1,485.9 h -20.3 l -43.6,120 h 27.5 l 7,-20.6 h 38.8 l 6.9,20.6 h 27.5 L 992.5,487.1 Z m 2.2,76.7 h -24 l 12.2,-35.1 z"
       id="SVGID_15_"
       inkscape:connector-curvature="0" />
    <polygon
       points="1886.4,582.1 1832.4,582.1 1832.4,557.3 1878.4,557.3 1878.4,533.5 1832.4,533.5 1832.4,509.7 1886.4,509.7 1886.4,485.9 1806.2,485.9 1806.2,605.9 1886.4,605.9 "
       id="SVGID_17_" />
  </defs>
  <sodipodi:namedview
     id="base"
     pagecolor="#ffffff"
     bordercolor="#666666"
     borderopacity="1.0"
     inkscape:pageopacity="0.0"
     inkscape:pageshadow="2"
     inkscape:zoom="0.35"
     inkscape:cx="376.64284"
     inkscape:cy="829.6857"
     inkscape:document-units="mm"
     inkscape:current-layer="layer1"
     showgrid="false"
     inkscape:snap-page="true"
     fit-margin-top="0"
     fit-margin-left="0"
     fit-margin-right="0"
     fit-margin-bottom="0"
     inkscape:window-width="1920"
     inkscape:window-height="1027"
     inkscape:window-x="-8"
     inkscape:window-y="-8"
     inkscape:window-maximized="1" />
  <metadata
     id="metadata5">
    <rdf:RDF>
      <cc:Work
         rdf:about="">
        <dc:format>image/svg+xml</dc:format>
        <dc:type
           rdf:resource="http://purl.org/dc/dcmitype/StillImage" />
        <dc:title></dc:title>
      </cc:Work>
    </rdf:RDF>
  </metadata>
  <g
     inkscape:label="Layer 1"
     inkscape:groupmode="layer"
     id="layer1"
     transform="translate(119.68616,-60.848033)">
    <g
       id="g4735"
       transform="matrix(0.26458333,0,0,0.26458333,-126.93574,56.535325)">
      <polygon
         id="polygon4520"
         points="748.5,423.7 748.5,327.5 722.2,327.5 722.2,447.5 801.3,447.5 801.3,423.7 "
         class="st0"
         style="clip-rule:evenodd;fill:#033d5a;fill-rule:evenodd" />
      <polygon
         id="polygon4522"
         points="885.8,375.1 839.8,375.1 839.8,351.3 893.8,351.3 893.8,327.5 813.6,327.5 813.6,447.5 893.8,447.5 893.8,423.7 839.8,423.7 839.8,398.9 885.8,398.9 "
         class="st0"
         style="clip-rule:evenodd;fill:#033d5a;fill-rule:evenodd" />
      <polygon
         id="polygon4524"
         points="960.5,447.5 960.5,351.3 990.9,351.3 990.9,327.5 903.8,327.5 903.8,351.3 934.2,351.3 934.2,447.5 "
         class="st0"
         style="clip-rule:evenodd;fill:#033d5a;fill-rule:evenodd" />
      <path
         id="path4526"
         d="m 1046.5,327.5 h -20.3 l -43.6,120 h 27.5 l 7,-20.6 h 38.8 l 6.9,20.6 h 27.5 l -43.4,-118.8 z m 2.2,76.7 h -24 l 12.2,-35.2 z"
         class="st0"
         inkscape:connector-curvature="0"
         style="clip-rule:evenodd;fill:#033d5a;fill-rule:evenodd" />
      <polygon
         id="polygon4528"
         points="1100.4,447.5 1179.5,447.5 1179.5,423.7 1126.6,423.7 1126.6,327.5 1100.4,327.5 "
         class="st0"
         style="clip-rule:evenodd;fill:#033d5a;fill-rule:evenodd" />
      <path
         id="path4530"
         d="m 1270.5,411.4 c 0,-11.2 -3.2,-20 -9.6,-26 -5.4,-5.1 -12.6,-8 -23.2,-9.5 l -13.7,-2 c -4,-0.6 -7.6,-2.1 -9.8,-4.1 -2.5,-2.3 -2.9,-5.4 -2.9,-7.1 0,-8 6.2,-13 16.2,-13 7.3,0 15.7,0.9 22.7,7.5 l 1.2,1.2 16.9,-16.7 -1.3,-1.2 c -10.1,-9.7 -22,-14.1 -38.8,-14.1 -25.3,0 -42.3,14.9 -42.3,37.1 0,10.3 2.9,18.2 8.9,24.2 5.5,5.3 13.2,8.6 23.6,10.1 l 14,2 c 5.4,0.8 7.6,2 9.4,3.6 2,1.9 3,4.8 3,8.5 0,10.4 -10.2,12.6 -18.8,12.6 -11.8,0 -20.6,-3 -26.9,-9.3 l -1.2,-1.2 -17.2,17.2 1.2,1.2 c 11,11.1 24.1,15.9 43.8,15.9 26.7,0.2 44.8,-14.7 44.8,-36.9"
         class="st0"
         inkscape:connector-curvature="0"
         style="clip-rule:evenodd;fill:#033d5a;fill-rule:evenodd" />
      <g
         id="g4540">
	<defs
   id="defs4533">
		<polygon
   points="561.4,605.9 641.5,605.9 641.5,582.1 593,582.1 641.5,506.2 641.5,485.9 563.5,485.9 563.5,509.7 609.7,509.7 561.4,585.3 "
   id="polygon4663" />

	</defs>

	<use
   id="use4535"
   style="clip-rule:evenodd;overflow:visible;fill:#033d5a;fill-rule:evenodd"
   xlink:href="#SVGID_1_"
   x="0"
   y="0"
   width="100%"
   height="100%" />

	<clipPath
   id="SVGID_2_">
		<use
   id="use4537"
   style="overflow:visible"
   xlink:href="#SVGID_1_"
   x="0"
   y="0"
   width="100%"
   height="100%" />

	</clipPath>

</g>
      <g
         id="g4550">
	<defs
   id="defs4543">
		<polygon
   points="683.9,605.9 703.5,605.9 743.2,485.9 715.8,485.9 693.7,557.6 671.6,485.9 644.3,485.9 "
   id="polygon4670" />

	</defs>

	<use
   id="use4545"
   style="clip-rule:evenodd;overflow:visible;fill:#033d5a;fill-rule:evenodd"
   xlink:href="#SVGID_3_"
   x="0"
   y="0"
   width="100%"
   height="100%" />

	<clipPath
   id="SVGID_4_">
		<use
   id="use4547"
   style="overflow:visible"
   xlink:href="#SVGID_3_"
   x="0"
   y="0"
   width="100%"
   height="100%" />

	</clipPath>

</g>
      <g
         id="g4560">
	<defs
   id="defs4553">
		<polygon
   points="779.3,582.1 779.3,557.3 825.3,557.3 825.3,533.5 779.3,533.5 779.3,509.7 833.3,509.7 833.3,485.9 753.1,485.9 753.1,605.9 833.3,605.9 833.3,582.1 "
   id="polygon4677" />

	</defs>

	<use
   id="use4555"
   style="clip-rule:evenodd;overflow:visible;fill:#033d5a;fill-rule:evenodd"
   xlink:href="#SVGID_5_"
   x="0"
   y="0"
   width="100%"
   height="100%" />

	<clipPath
   id="SVGID_6_">
		<use
   id="use4557"
   style="overflow:visible"
   xlink:href="#SVGID_5_"
   x="0"
   y="0"
   width="100%"
   height="100%" />

	</clipPath>

</g>
      <g
         id="g4570">
	<defs
   id="defs4563">
		<polygon
   points="845,605.9 925,605.9 925,582.1 876.6,582.1 925,506.2 925,485.9 847.1,485.9 847.1,509.7 893.2,509.7 845,585.3 "
   id="polygon4684" />

	</defs>

	<use
   id="use4565"
   style="clip-rule:evenodd;overflow:visible;fill:#033d5a;fill-rule:evenodd"
   xlink:href="#SVGID_7_"
   x="0"
   y="0"
   width="100%"
   height="100%" />

	<clipPath
   id="SVGID_8_">
		<use
   id="use4567"
   style="overflow:visible"
   xlink:href="#SVGID_7_"
   x="0"
   y="0"
   width="100%"
   height="100%" />

	</clipPath>

</g>
      <path
         id="path4572"
         d="m 1131.9,534.4 -13.7,-2 c -4,-0.6 -7.6,-2.1 -9.8,-4.1 -2.5,-2.3 -2.9,-5.4 -2.9,-7.1 0,-8 6.2,-13 16.2,-13 7.3,0 15.7,0.9 22.7,7.5 l 1.2,1.2 16.9,-16.7 -1.3,-1.3 c -10.1,-9.7 -22,-14.1 -38.8,-14.1 -25.3,0 -42.3,14.9 -42.3,37.1 0,10.3 2.9,18.2 8.9,24.2 5.4,5.3 13.1,8.6 23.5,10.1 l 14.1,2 c 5.4,0.8 7.6,2 9.4,3.6 2,1.9 3,4.7 3,8.5 0,10.4 -10.2,12.6 -18.8,12.6 -11.8,0 -20.6,-3 -26.9,-9.3 l -1.2,-1.2 -17.2,17.2 1.2,1.2 c 11,11.1 24.1,15.9 43.8,15.9 26.9,0 44.9,-14.9 44.9,-37.1 0,-11.2 -3.2,-20 -9.6,-26 -5.5,-4.8 -12.7,-7.8 -23.3,-9.2 z"
         class="st0"
         inkscape:connector-curvature="0"
         style="clip-rule:evenodd;fill:#033d5a;fill-rule:evenodd" />
      <polygon
         id="polygon4574"
         points="1179.9,605.9 1258.9,605.9 1258.9,582.1 1206.1,582.1 1206.1,485.9 1179.9,485.9 "
         class="st0"
         style="clip-rule:evenodd;fill:#033d5a;fill-rule:evenodd" />
      <path
         id="path4576"
         d="m 1307.8,485 c -13.1,0 -23.9,4.3 -32.8,13.3 -12,12 -12,26.3 -12,46.1 v 3.2 c 0,19.8 0,34.1 12,46.1 8.9,8.9 19.7,13.3 32.8,13.3 13,0 23.7,-4.3 32.6,-13.3 12.1,-12.1 12.1,-26.7 12.1,-46.9 v -1.6 c 0,-20.2 0,-34.8 -12.1,-46.9 -8.9,-9 -19.6,-13.3 -32.6,-13.3 m 13.2,92.5 c -3.1,3.6 -7.8,5.6 -13.2,5.6 -5.4,0 -10.3,-2 -13.4,-5.6 -3.9,-4.3 -5.1,-9.2 -5.1,-31.5 0,-22.3 1.2,-27.2 5.1,-31.5 3.1,-3.6 8,-5.6 13.4,-5.6 5.4,0 10.1,2 13.2,5.6 4,4.5 5.3,9.4 5.3,31.5 0,22.1 -1.3,27 -5.3,31.5 z"
         class="st0"
         inkscape:connector-curvature="0"
         style="clip-rule:evenodd;fill:#033d5a;fill-rule:evenodd" />
      <polygon
         id="polygon4578"
         points="1396.5,605.9 1416,605.9 1455.8,485.9 1428.3,485.9 1406.2,557.6 1384.1,485.9 1356.9,485.9 "
         class="st0"
         style="clip-rule:evenodd;fill:#033d5a;fill-rule:evenodd" />
      <polygon
         id="polygon4580"
         points="1491.9,582.1 1491.9,557.3 1537.8,557.3 1537.8,533.5 1491.9,533.5 1491.9,509.7 1545.9,509.7 1545.9,485.9 1465.6,485.9 1465.6,605.9 1545.9,605.9 1545.9,582.1 "
         class="st0"
         style="clip-rule:evenodd;fill:#033d5a;fill-rule:evenodd" />
      <polygon
         id="polygon4582"
         points="1564.6,485.9 1564.6,605.9 1590.8,605.9 1590.8,538.7 1633.7,605.1 1634.2,605.9 1657.2,605.9 1657.2,485.9 1631,485.9 1631,553 1587.6,485.9 "
         class="st0"
         style="clip-rule:evenodd;fill:#033d5a;fill-rule:evenodd" />
      <rect
         id="rect4584"
         height="120"
         width="26.299999"
         class="st0"
         y="485.89999"
         x="1680.8"
         style="clip-rule:evenodd;fill:#033d5a;fill-rule:evenodd" />
      <path
         id="path4586"
         d="m 1757.8,564.9 c 0,11.7 -5.9,18.2 -16.6,18.2 -7.1,0 -10.2,-2.6 -13.6,-6 l -1.2,-1.2 -17.5,17.4 1.3,1.3 c 8.8,8.8 17.9,12.5 31.2,12.5 20.6,0 42.8,-12.8 42.8,-41 v -79.9 h -26.3 v 78.7 z"
         class="st0"
         inkscape:connector-curvature="0"
         style="clip-rule:evenodd;fill:#033d5a;fill-rule:evenodd" />
      <g
         id="g4596">
	<defs
   id="defs4589">
		<polygon
   points="707.3,125 870.4,288.1 924.8,233.8 979.3,288.1 1088,288.1 924.9,125 870.4,179.4 707.3,16.3 544.2,179.4 598.6,233.8 "
   id="polygon4699" />

	</defs>

	<use
   id="use4591"
   style="clip-rule:evenodd;overflow:visible;fill:#b0b0b0;fill-rule:evenodd"
   xlink:href="#SVGID_9_"
   x="0"
   y="0"
   width="100%"
   height="100%" />

	<clipPath
   id="SVGID_10_">
		<use
   id="use4593"
   style="overflow:visible"
   xlink:href="#SVGID_9_"
   x="0"
   y="0"
   width="100%"
   height="100%" />

	</clipPath>

</g>
      <g
         id="g4606">
	<defs
   id="defs4599">
		<polygon
   points="571.6,424.3 360.6,213.3 142.9,213.3 219.8,290.2 328.7,290.2 517.2,478.7 "
   id="polygon4706" />

	</defs>

	<use
   id="use4601"
   style="clip-rule:evenodd;overflow:visible;fill:#003d5a;fill-rule:evenodd"
   xlink:href="#SVGID_11_"
   x="0"
   y="0"
   width="100%"
   height="100%" />

	<clipPath
   id="SVGID_12_">
		<use
   id="use4603"
   style="overflow:visible"
   xlink:href="#SVGID_11_"
   x="0"
   y="0"
   width="100%"
   height="100%" />

	</clipPath>

</g>
      <g
         id="g4616">
	<defs
   id="defs4609">
		<polygon
   points="762.1,233.8 653.4,233.8 598.8,288.4 408.1,97.8 27.4,97.8 104.3,174.7 376.3,174.7 598.8,397.2 "
   id="polygon4713" />

	</defs>

	<use
   id="use4611"
   style="clip-rule:evenodd;overflow:visible;fill:#429e46;fill-rule:evenodd"
   xlink:href="#SVGID_13_"
   x="0"
   y="0"
   width="100%"
   height="100%" />

	<clipPath
   id="SVGID_14_">
		<use
   id="use4613"
   style="overflow:visible"
   xlink:href="#SVGID_13_"
   x="0"
   y="0"
   width="100%"
   height="100%" />

	</clipPath>

</g>
      <path
         id="path4618"
         d="m 1447.5,327.5 h -20.3 l -42.2,116 -40,-67.8 40.2,-48.2 H 1353 l -38.4,47.5 v -47.5 h -26.3 v 120 h 26.3 v -36.1 l 13,-15.5 29.2,51.7 h 26.8 3.8 23.7 l 7,-20.6 h 38.8 l 6.9,20.6 h 27.5 L 1448,328.7 Z m 2.2,76.7 h -24 l 12.2,-35.2 z"
         class="st0"
         inkscape:connector-curvature="0"
         style="clip-rule:evenodd;fill:#033d5a;fill-rule:evenodd" />
      <g
         id="g4628">
	<defs
   id="defs4621">
		<path
   d="m 992.1,485.9 h -20.3 l -43.6,120 h 27.5 l 7,-20.6 h 38.8 l 6.9,20.6 h 27.5 L 992.5,487.1 Z m 2.2,76.7 h -24 l 12.2,-35.1 z"
   id="path4721"
   inkscape:connector-curvature="0" />

	</defs>

	<use
   id="use4623"
   style="clip-rule:evenodd;overflow:visible;fill:#033d5a;fill-rule:evenodd"
   xlink:href="#SVGID_15_"
   x="0"
   y="0"
   width="100%"
   height="100%" />

	<clipPath
   id="SVGID_16_">
		<use
   id="use4625"
   style="overflow:visible"
   xlink:href="#SVGID_15_"
   x="0"
   y="0"
   width="100%"
   height="100%" />

	</clipPath>

</g>
      <g
         id="g4638">
	<defs
   id="defs4631">
		<polygon
   points="1878.4,533.5 1832.4,533.5 1832.4,509.7 1886.4,509.7 1886.4,485.9 1806.2,485.9 1806.2,605.9 1886.4,605.9 1886.4,582.1 1832.4,582.1 1832.4,557.3 1878.4,557.3 "
   id="polygon4728" />

	</defs>

	<use
   id="use4633"
   style="clip-rule:evenodd;overflow:visible;fill:#033d5a;fill-rule:evenodd"
   xlink:href="#SVGID_17_"
   x="0"
   y="0"
   width="100%"
   height="100%" />

	<clipPath
   id="SVGID_18_">
		<use
   id="use4635"
   style="overflow:visible"
   xlink:href="#SVGID_17_"
   x="0"
   y="0"
   width="100%"
   height="100%" />

	</clipPath>

</g>
    </g>
  </g>
  <style
     id="style4518"
     type="text/css">
	.st0{fill-rule:evenodd;clip-rule:evenodd;fill:#033D5A;}
</style>
</svg>
