<?xml version="1.0" encoding="utf-8"?>
<!-- Generator: Adobe Illustrator 21.1.0, SVG Export Plug-In . SVG Version: 6.00 Build 0)  -->
<svg version="1.1" id="Layer_1" xmlns="http://www.w3.org/2000/svg" xmlns:xlink="http://www.w3.org/1999/xlink" x="0px" y="0px"
	 viewBox="0 0 646 271" style="enable-background:new 0 0 646 271;" xml:space="preserve">
<style type="text/css">
	.st0{fill:#F00000;}
	.st1{fill-rule:evenodd;clip-rule:evenodd;fill:#F00000;}
</style>
<path class="st0" d="M338.6,137.4l-52.3-57.1L241,118.1l7.3,8h-58.2l67.1-89.1H306l32.6,39.1l32.6-39.1H420l67.1,89.1h-58.2l7.3-8
	l-45.3-37.8 M338.6,158.6l53.6-58.5l24.9,20.8l-17.9,19.5h116.6L427.1,22.7h-62.8l-25.8,30.8l-25.8-30.8h-62.8l-88.7,117.7H278
	l-17.9-19.5l24.9-20.8L338.6,158.6"/>
<path class="st0" d="M338.6,168.7L286,111.4l-14.4,12.1l24.6,26.8H143.5L246,12.8h69.2l23.4,28l23.4-28h69.2l102.5,137.5H381
	l24.6-26.8l-14.4-12.1 M338.6,178.8l53.5-58.3l4.5,3.7l-29.8,32.6h179.9L434.5,6.3h-75.5l-20.3,24.4L318.3,6.3h-75.5L130.6,156.7
	h179.9l-29.8-32.6l4.5-3.7L338.6,178.8z"/>
<path class="st1" d="M588.2,244.4h20.7l-2.5-17.8 M541.5,263.5l58.5-52.8h29.4l9.9,52.8h-27.6l-1-5.9h-35.6l-6.5,5.9H541.5z"/>
<path class="st1" d="M502.9,235.6h2.5c4.7,0,8.5-0.6,11.4-1.7c3-1.1,4.9-2.7,5.8-4.9c1-2.2,0.5-3.8-1.4-5c-1.9-1.1-5-1.7-9.4-1.7
	h-3.2 M464.5,263.5l23.3-52.8h28.4c13.2,0,22.7,1.4,28.4,4.3c5.7,2.8,7.4,7,5,12.4c-1.4,3.1-4,5.8-7.9,8.1
	c-3.8,2.3-8.4,3.9-13.8,4.8l11.9,23.2h-28.6l-10.8-22.6l-10,22.6H464.5z"/>
<path class="st1" d="M410,244.4h20.7l-2.5-17.8 M363.3,263.5l58.5-52.8h29.4l9.9,52.8h-27.6l-1-5.9h-35.6l-6.5,5.9H363.3z"/>
<path class="st1" d="M342.1,236.1h3.1c4.3,0,7.8-0.6,10.7-1.7c2.9-1.1,4.7-2.6,5.6-4.6c0.9-2.1,0.5-3.7-1.4-4.8
	c-1.8-1.1-5-1.7-9.4-1.7h-3 M303.9,263.5l23.3-52.8h26.2c14.3,0,24.3,1.6,29.9,4.7c5.6,3.1,7,7.9,4.2,14.3
	c-2.7,6.2-8.3,11-16.6,14.5c-8.3,3.4-18.6,5.2-30.8,5.2h-3.9l-6.3,14.2H303.9z"/>
<path class="st1" d="M269,263.5c-2.1,0.3-4.3,0.5-6.5,0.7c-2.2,0.1-4.7,0.2-7.3,0.2c-15.9,0-27.6-2.5-35.2-7.5
	c-7.6-5-9.6-11.5-6.1-19.4c3.5-8,11.5-14.6,24-19.8c12.5-5.2,26.6-7.8,42.3-7.8c1.8,0,3.7,0.1,5.7,0.2c2,0.1,4,0.3,6.1,0.6l2.2,17.5
	c-2.1-0.4-12-2.6-14.2-3c-2.2-0.4-4.4-0.4-6.5-0.4c-7.9,0-14.8,1.2-20.8,3.5c-6,2.3-9.8,5.3-11.4,8.9c-1.6,3.6-0.4,6.6,3.4,9
	c3.9,2.4,9.5,3.6,16.9,3.6c2.7,0,5.4-0.2,8.1-0.5c2.8-0.4,8.5-0.8,11.4-1.5"/>
<path class="st1" d="M160.7,244.4h20.7l-2.5-17.8 M114,263.5l58.5-52.8h29.4l9.9,52.8h-27.6l-1-5.9h-35.6l-6.5,5.9H114z"/>
<polyline class="st1" points="8.6,263.5 44.6,210.8 65.8,210.8 73.2,234.2 101.6,210.8 122.2,210.8 113.3,263.5 86.4,263.5 
	91.5,239.3 61.2,263.7 51,239.3 35.4,263.5 "/>
</svg>
