<?xml version="1.0" encoding="UTF-8" standalone="no"?>
<!-- Created with Inkscape (http://www.inkscape.org/) -->

<svg
   xmlns:dc="http://purl.org/dc/elements/1.1/"
   xmlns:cc="http://creativecommons.org/ns#"
   xmlns:rdf="http://www.w3.org/1999/02/22-rdf-syntax-ns#"
   xmlns:svg="http://www.w3.org/2000/svg"
   xmlns="http://www.w3.org/2000/svg"
   xmlns:sodipodi="http://sodipodi.sourceforge.net/DTD/sodipodi-0.dtd"
   xmlns:inkscape="http://www.inkscape.org/namespaces/inkscape"
   width="451.62958mm"
   height="123.67937mm"
   viewBox="0 0 451.62958 123.67937"
   version="1.1"
   id="svg8"
   inkscape:version="0.92.3 (2405546, 2018-03-11)"
   sodipodi:docname="naviter.svg">
  <defs
     id="defs2">
    <polygon
       points="563.5,509.7 609.7,509.7 561.4,585.3 561.4,605.9 641.5,605.9 641.5,582.1 593,582.1 641.5,506.2 641.5,485.9 563.5,485.9 "
       id="SVGID_1_" />
    <polygon
       points="693.7,557.6 671.6,485.9 644.3,485.9 683.9,605.9 703.5,605.9 743.2,485.9 715.8,485.9 "
       id="SVGID_3_" />
    <polygon
       points="753.1,605.9 833.3,605.9 833.3,582.1 779.3,582.1 779.3,557.3 825.3,557.3 825.3,533.5 779.3,533.5 779.3,509.7 833.3,509.7 833.3,485.9 753.1,485.9 "
       id="SVGID_5_" />
    <polygon
       points="847.1,509.7 893.2,509.7 845,585.3 845,605.9 925,605.9 925,582.1 876.6,582.1 925,506.2 925,485.9 847.1,485.9 "
       id="SVGID_7_" />
    <polygon
       points="707.3,16.3 544.2,179.4 598.6,233.8 707.3,125 870.4,288.1 924.8,233.8 979.3,288.1 1088,288.1 924.9,125 870.4,179.4 "
       id="SVGID_9_" />
    <polygon
       points="219.8,290.2 328.7,290.2 517.2,478.7 571.6,424.3 360.6,213.3 142.9,213.3 "
       id="SVGID_11_" />
    <polygon
       points="104.3,174.7 376.3,174.7 598.8,397.2 762.1,233.8 653.4,233.8 598.8,288.4 408.1,97.8 27.4,97.8 "
       id="SVGID_13_" />
    <path
       d="m 992.1,485.9 h -20.3 l -43.6,120 h 27.5 l 7,-20.6 h 38.8 l 6.9,20.6 h 27.5 L 992.5,487.1 Z m 2.2,76.7 h -24 l 12.2,-35.1 z"
       id="SVGID_15_"
       inkscape:connector-curvature="0" />
    <polygon
       points="1832.4,582.1 1832.4,557.3 1878.4,557.3 1878.4,533.5 1832.4,533.5 1832.4,509.7 1886.4,509.7 1886.4,485.9 1806.2,485.9 1806.2,605.9 1886.4,605.9 1886.4,582.1 "
       id="SVGID_17_" />
    <clipPath
       id="clipPath4833"
       clipPathUnits="userSpaceOnUse">
      <path
         inkscape:connector-curvature="0"
         id="path4831"
         d="M 0,0 H 907.087 V 1275.591 H 0 Z" />
    </clipPath>
    <clipPath
       id="clipPath4851"
       clipPathUnits="userSpaceOnUse">
      <path
         inkscape:connector-curvature="0"
         id="path4849"
         d="M 0,0 H 907.087 V 1275.591 H 0 Z" />
    </clipPath>
  </defs>
  <sodipodi:namedview
     id="base"
     pagecolor="#ffffff"
     bordercolor="#666666"
     borderopacity="1.0"
     inkscape:pageopacity="0.0"
     inkscape:pageshadow="2"
     inkscape:zoom="0.35"
     inkscape:cx="292.9"
     inkscape:cy="706.33535"
     inkscape:document-units="mm"
     inkscape:current-layer="layer1"
     showgrid="false"
     inkscape:snap-page="true"
     fit-margin-top="0"
     fit-margin-left="0"
     fit-margin-right="0"
     fit-margin-bottom="0"
     inkscape:window-width="1920"
     inkscape:window-height="1027"
     inkscape:window-x="-8"
     inkscape:window-y="-8"
     inkscape:window-maximized="1" />
  <metadata
     id="metadata5">
    <rdf:RDF>
      <cc:Work
         rdf:about="">
        <dc:format>image/svg+xml</dc:format>
        <dc:type
           rdf:resource="http://purl.org/dc/dcmitype/StillImage" />
        <dc:title></dc:title>
      </cc:Work>
    </rdf:RDF>
  </metadata>
  <g
     inkscape:label="Layer 1"
     inkscape:groupmode="layer"
     id="layer1"
     transform="translate(97.5292,-60.848046)">
    <g
       transform="matrix(1.5629106,0,0,-1.5629106,-581.39163,1077.4487)"
       inkscape:label="naviter_logo"
       id="g4825">
      <g
         id="g4827">
        <g
           clip-path="url(#clipPath4833)"
           id="g4829">
          <g
             transform="matrix(1,0,-0.2125566,-1,453.5433,637.79529)"
             id="g4835">
            <g
               transform="translate(5.8515,-12.6582)"
               id="g4837">
              <path
                 inkscape:connector-curvature="0"
                 id="path4839"
                 style="fill:#849dd8;fill-opacity:1;fill-rule:nonzero;stroke:none"
                 d="m 0,0 c 0,0 -7.749,0 -7.749,7.749 v 63.637 c 0,0 0,7.748 7.749,7.748 h 63.136 c 0,0 7.749,0 7.749,-7.748 V 7.749 c 0,0 0,-7.749 -7.749,-7.749 z" />
            </g>
          </g>
        </g>
      </g>
      <g
         transform="translate(465.3261,579.3791)"
         id="g4841">
        <path
           inkscape:connector-curvature="0"
           id="path4843"
           style="fill:#ffffff;fill-opacity:1;fill-rule:nonzero;stroke:none"
           d="M 0,0 13.307,62.606 H -1.785 L -15.092,0 Z M 16.906,50.084 H 28.739 L 18.093,0 h 15.093 l 10.645,50.084 h 12.177 l 2.661,12.522 H 19.567 Z" />
      </g>
      <g
         id="g4845">
        <g
           clip-path="url(#clipPath4851)"
           id="g4847">
          <g
             transform="translate(356.1606,615.0099)"
             id="g4853">
            <path
               inkscape:connector-curvature="0"
               id="path4855"
               style="fill:#2a3e92;fill-opacity:1;fill-rule:nonzero;stroke:none"
               d="m 0,0 c 1.229,4.929 1.013,8.692 -0.648,11.289 -1.661,2.596 -4.673,3.895 -9.036,3.895 -2.511,0 -4.923,-0.491 -7.235,-1.472 -2.312,-0.981 -4.776,-2.345 -7.393,-4.092 l 1.11,4.451 H -36.52 L -46.57,-26.24 h 13.317 l 7.124,28.573 c 1.477,0.838 2.821,1.448 4.033,1.831 1.211,0.382 2.363,0.574 3.454,0.574 1.446,0 2.55,-0.197 3.314,-0.592 0.764,-0.395 1.261,-1.047 1.491,-1.956 0.19,-0.767 0.153,-1.957 -0.11,-3.572 -0.264,-1.615 -0.598,-3.237 -1.004,-4.864 l -4.985,-19.994 h 13.394 z m 24.87,-17.84 c -1.343,-0.503 -2.598,-0.754 -3.765,-0.754 -2.106,0 -3.609,0.353 -4.511,1.059 -0.903,0.706 -1.117,2.004 -0.646,3.895 0.322,1.292 0.904,2.327 1.744,3.105 0.841,0.777 1.892,1.358 3.155,1.741 1.457,0.454 2.903,0.759 4.337,0.915 1.434,0.155 3.307,0.341 5.618,0.556 l -2.094,-8.399 c -1.216,-0.91 -2.495,-1.616 -3.838,-2.118 m 1.216,-8.4 h 13.241 l 6.838,27.425 c 1.181,4.738 0.379,8.261 -2.406,10.571 -2.786,2.309 -7.856,3.464 -15.212,3.464 -2.994,0 -6.023,-0.246 -9.087,-0.736 -3.066,-0.491 -5.302,-0.915 -6.71,-1.274 L 10.324,3.482 h 1.142 c 2.212,0.837 4.438,1.525 6.678,2.064 2.24,0.538 4.146,0.808 5.719,0.808 3.475,0 5.975,-0.426 7.501,-1.275 1.526,-0.85 2.011,-2.387 1.456,-4.612 L 32.767,0.251 C 28.851,0.012 25.166,-0.323 21.71,-0.754 18.254,-1.185 15.184,-1.951 12.5,-3.051 9.847,-4.128 7.657,-5.588 5.929,-7.43 c -1.728,-1.843 -2.964,-4.26 -3.71,-7.251 -0.907,-3.638 -0.41,-6.653 1.492,-9.046 1.902,-2.393 4.743,-3.59 8.523,-3.59 2.029,0 3.644,0.144 4.844,0.431 1.2,0.287 2.465,0.706 3.795,1.257 1.361,0.574 2.474,1.148 3.34,1.723 0.866,0.574 1.846,1.22 2.938,1.938 z m 57.88,40.311 -15.287,-26.67 -2.102,26.67 H 52.575 l 5.169,-40.311 h 14.535 l 25.385,40.311 z m 100.722,-41.082 c 1.585,0.203 3.145,0.484 4.681,0.843 1.662,0.359 2.986,0.712 3.974,1.059 0.986,0.347 2.076,0.724 3.268,1.131 l 2.587,10.374 h -1.408 c -0.685,-0.408 -1.556,-0.874 -2.613,-1.4 -1.057,-0.527 -2.188,-1.018 -3.392,-1.472 -1.374,-0.527 -2.85,-0.951 -4.427,-1.274 -1.577,-0.323 -3.14,-0.485 -4.687,-0.485 -1.801,0 -3.422,0.162 -4.863,0.485 -1.442,0.323 -2.641,0.855 -3.597,1.597 -0.982,0.741 -1.672,1.741 -2.068,2.997 -0.398,1.257 -0.427,2.818 -0.088,4.685 h 29.184 l 1.127,4.522 c 1.546,6.198 1.084,10.96 -1.384,14.287 -2.469,3.326 -6.975,4.989 -13.519,4.989 -7.205,0 -13.3,-1.962 -18.286,-5.886 -4.987,-3.925 -8.3,-9.178 -9.94,-15.759 -1.677,-6.724 -0.819,-11.905 2.574,-15.542 3.392,-3.638 9.122,-5.457 17.188,-5.457 2.207,0 4.103,0.103 5.689,0.306 m -10.783,26.114 c 0.779,2.512 2.079,4.498 3.902,5.958 1.822,1.46 4.027,2.19 6.615,2.19 2.536,0 4.246,-0.694 5.131,-2.082 0.884,-1.388 1.033,-3.41 0.447,-6.066 z m 68.492,14.968 c -0.419,0.048 -0.892,0.084 -1.419,0.108 -0.527,0.023 -1.006,0.036 -1.437,0.036 -1.141,0 -2.402,-0.198 -3.781,-0.593 -1.38,-0.394 -2.62,-0.867 -3.721,-1.418 -1.008,-0.478 -2.15,-1.118 -3.428,-1.92 -1.278,-0.802 -2.287,-1.466 -3.027,-1.992 l 1.441,5.779 H 213.708 L 203.657,-26.24 h 13.318 l 6.73,26.994 c 1.577,0.526 3.18,0.981 4.811,1.364 1.63,0.382 3.142,0.574 4.538,0.574 1.166,0 2.221,-0.042 3.165,-0.125 0.942,-0.085 1.646,-0.21 2.112,-0.377 h 1.104 z" />
          </g>
        </g>
      </g>
    </g>
  </g>
  <style
     id="style4518"
     type="text/css">
	.st0{fill-rule:evenodd;clip-rule:evenodd;fill:#033D5A;}
</style>
</svg>
