<?xml version="1.0" encoding="utf-8"?>
<!-- Generator: Adobe Illustrator 21.1.0, SVG Export Plug-In . SVG Version: 6.00 Build 0)  -->
<svg version="1.1" id="Ebene_1" xmlns="http://www.w3.org/2000/svg" xmlns:xlink="http://www.w3.org/1999/xlink" x="0px" y="0px"
	 viewBox="0 0 283.5 129.2" style="enable-background:new 0 0 283.5 129.2;" xml:space="preserve">
<style type="text/css">
	.st0{fill:#EE312A;}
</style>
<g>
	<g>
		<path class="st0" d="M97,45.1c-1.8,0-3.2,1.4-3.2,3.2v24.8L67.5,46.7c-1.1-1.1-1.8-1.6-3.1-1.6c-1.8,0-3.2,1.4-3.2,3.2v32.6
			c0,1.8,1.4,3.2,3.2,3.2c1.8,0,3.2-1.4,3.2-3.2V56.1l26.3,26.5c1.1,1.1,1.8,1.6,3.1,1.6c1.8,0,3.2-1.4,3.2-3.2V48.3
			C100.2,46.5,98.8,45.1,97,45.1"/>
	</g>
	<g>
		<path class="st0" d="M128.4,44.8c-11,0-19.9,8.9-19.9,19.9c0,11,8.9,19.9,19.9,19.9c11,0,19.9-8.9,19.9-19.9
			C148.3,53.7,139.4,44.8,128.4,44.8 M141.8,64.6c0,7.4-6,13.4-13.4,13.4c-7.4,0-13.4-6-13.4-13.4c0-7.4,6-13.4,13.4-13.4
			C135.8,51.2,141.8,57.2,141.8,64.6"/>
	</g>
	<g>
		<path class="st0" d="M196.8,48.3c0-1.8-1.4-3.2-3.2-3.2c-1.3,0-2,0.5-3.1,1.6l-27.4,26.5V48.3c0-1.8-1.4-3.2-3.2-3.2
			c-1.8,0-3.2,1.4-3.2,3.2v32.6c0,1.8,1.4,3.2,3.2,3.2c1.3,0,2-0.5,3.1-1.6l32.8-31.9C196.4,50,196.8,49.2,196.8,48.3"/>
	</g>
	<g>
		<path class="st0" d="M219.1,45.1c-1.3,0-2,0.5-3.1,1.6l-32.8,31.9c-0.7,0.7-1,1.5-1,2.3c0,1.8,1.4,3.2,3.2,3.2
			c1.3,0,2-0.5,3.1-1.6l7.4-7l20,0v5.4c0,1.8,1.4,3.2,3.2,3.2c1.8,0,3.2-1.4,3.2-3.2V48.3C222.3,46.5,220.9,45.1,219.1,45.1
			 M215.8,56.1v13.2l-13.5,0L215.8,56.1z"/>
	</g>
	<g>
		<path class="st0" d="M141.7,129.2c-47.4,0-94.3-6.5-139.5-19.5c-1.3-0.4-2.2-1.6-2.2-3V22.4c0-1.4,0.9-2.6,2.2-3
			C47.4,6.5,94.4,0,141.7,0c47.4,0,94.3,6.5,139.5,19.5c1.3,0.4,2.2,1.6,2.2,3v84.4c0,1.4-0.9,2.6-2.2,3
			C236,122.7,189.1,129.2,141.7,129.2z M6.2,104.5c43.9,12.3,89.5,18.6,135.5,18.6c46,0,91.6-6.3,135.5-18.6V24.8
			C233.3,12.4,187.7,6.2,141.7,6.2c-46,0-91.6,6.3-135.5,18.6V104.5z"/>
	</g>
</g>
</svg>
